<?xml version="1.0" encoding="utf-8"?><svg viewBox="0 0 35 35" xmlns="http://www.w3.org/2000/svg" xmlns:xlink="http://www.w3.org/1999/xlink"><style>:root>svg{display:none}:root>svg:target{display:block}</style><svg fill="none" viewBox="0 0 13 14" id="box-checked" xmlns="http://www.w3.org/2000/svg"><path fill="#6F6E6D" d="M0 .453h13v13H0z"/><path d="M3.526 6.453l2.308 2.5 3.692-4" stroke="#fff" stroke-opacity=".75"/></svg><svg fill="none" viewBox="0 0 6 9" id="breadcrumb-after" xmlns="http://www.w3.org/2000/svg"><path d="M1 1l4 3.5L1 8" stroke="#BDB9B5"/></svg><svg fill="none" viewBox="0 0 14 25" id="card-arrow_left" xmlns="http://www.w3.org/2000/svg"><path d="M13 24L1 12.5 13 1" stroke="#1B1A17" stroke-width=".5"/></svg><svg fill="none" viewBox="0 0 14 25" id="card-arrow_right" xmlns="http://www.w3.org/2000/svg"><path d="M1 24l12-11.5L1 1" stroke="#1B1A17" stroke-width=".5"/></svg><svg fill="none" viewBox="0 0 20 20" id="ellipse" xmlns="http://www.w3.org/2000/svg"><path d="M18.682 12.534c-.58 1.841-1.868 4.123-4.39 5.476a9.053 9.053 0 01-4.909 1.06L9.426.944A9.95 9.95 0 019.583.93c.485-.004 1.083.018 1.697.088.274.03.545.07.806.121a9.153 9.153 0 011.668.57 9.055 9.055 0 014.256 3.984 9.052 9.052 0 011.07 4.743 9.668 9.668 0 01-.398 2.097zM8.425 1.074l-.042 17.873a9.097 9.097 0 01-2.69-16.97c.574-.309 1.553-.69 2.732-.902z" stroke="url(#epaint0_linear)"/><defs><linearGradient id="epaint0_linear" x1=".756" y1="8.723" x2="20.965" y2="9.992" gradientUnits="userSpaceOnUse"><stop offset=".288" stop-color="#555248"/><stop offset=".78" stop-color="#1B1A17" stop-opacity="0"/></linearGradient></defs></svg><svg fill="none" viewBox="0 0 35 35" id="ellipse-white" xmlns="http://www.w3.org/2000/svg"><path d="M28.028 20.251c-.74 2.335-2.38 5.223-5.568 6.933a11.498 11.498 0 01-5.912 1.364l.054-23.06c.596 0 1.311.03 2.042.114.35.04.694.09 1.022.153a11.63 11.63 0 012.111.722 11.5 11.5 0 015.406 5.061 11.497 11.497 0 011.36 6.023c-.042.683-.197 1.636-.515 2.69zm-13.426-14.5l-.053 22.542a11.53 11.53 0 01-7.734-5.833c-3.016-5.625-.901-12.63 4.723-15.645.652-.35 1.74-.783 3.064-1.063z" stroke="url(#fpaint0_linear)" stroke-width="2"/><defs><linearGradient id="fpaint0_linear" x1="4.914" y1="15.338" x2="31.354" y2="16.998" gradientUnits="userSpaceOnUse"><stop offset=".288" stop-color="#fff"/><stop offset=".78" stop-color="#fff" stop-opacity="0"/></linearGradient></defs></svg><svg fill="none" viewBox="0 0 9 17" id="facebook" xmlns="http://www.w3.org/2000/svg"><path d="M6.624 0C4.272 0 2.66 1.408 2.66 3.994v2.23H0v3.023h2.66V17h3.182V9.247h2.653l.399-3.023H5.842v-1.93c0-.876.248-1.472 1.527-1.472H9V.119A22.215 22.215 0 006.624 0z" fill="#5C5C50"/></svg><svg fill="none" viewBox="0 0 18 16" id="icon-card" xmlns="http://www.w3.org/2000/svg"><path d="M17.896 3.052a.586.586 0 00-.449-.233L6.282 2.364c-.32-.013-.588.22-.602.522-.014.3.233.555.552.568l10.41.424-2.047 6.031H5.487L3.84 1.447a.554.554 0 00-.357-.41L.79.038A.59.59 0 00.04.347c-.116.28.03.597.326.707l2.397.89 1.674 8.61a.57.57 0 00.568.447h.278l-.634 1.664a.433.433 0 00.06.415.49.49 0 00.393.194h.445c-.276.29-.445.671-.445 1.09 0 .903.777 1.637 1.732 1.637.956 0 1.733-.734 1.733-1.636 0-.42-.17-.802-.445-1.091H11.9c-.276.29-.445.671-.445 1.09 0 .903.777 1.637 1.732 1.637.956 0 1.733-.734 1.733-1.636 0-.42-.17-.802-.445-1.091h.541a.468.468 0 00.481-.455.468.468 0 00-.481-.454h-9.23L6.307 11h8.71a.575.575 0 00.55-.379l2.406-7.091a.52.52 0 00-.076-.478zM6.834 15.092c-.424 0-.77-.327-.77-.728 0-.401.346-.728.77-.728.425 0 .77.327.77.728 0 .4-.345.727-.77.727zm6.353 0c-.425 0-.77-.327-.77-.728 0-.401.345-.728.77-.728.425 0 .77.327.77.728 0 .4-.345.727-.77.727z" fill="#1B1A17"/></svg><svg fill="none" viewBox="0 0 21 18" id="icon-like" xmlns="http://www.w3.org/2000/svg"><path d="M19.969 5.771c-.278-2.765-2.438-4.77-5.142-4.77-1.802 0-3.451.877-4.38 2.285C9.527 1.86 7.947 1 6.173 1 3.47 1 1.31 3.006 1.032 5.77c-.022.123-.112.766.161 1.814.394 1.511 1.304 2.887 2.63 3.975L10.444 17l6.733-5.44c1.327-1.09 2.237-2.464 2.63-3.976.274-1.048.184-1.69.163-1.813zm-.874 1.661c-.36 1.38-1.193 2.639-2.408 3.636l-6.24 5.042-6.132-5.041c-1.217-.999-2.05-2.256-2.41-3.637-.259-.992-.153-1.552-.152-1.556l.005-.033c.238-2.423 2.094-4.181 4.415-4.181 1.713 0 3.22.953 3.936 2.487l.337.723.336-.723c.704-1.51 2.292-2.487 4.045-2.487 2.32 0 4.178 1.759 4.42 4.212 0 .006.107.566-.152 1.558z" fill="#1B1A17" stroke="#1B1A17" stroke-width=".75"/></svg><svg fill="none" viewBox="0 0 16 16" id="icon-search" xmlns="http://www.w3.org/2000/svg"><path d="M15.804 14.864l-3.846-3.847A6.745 6.745 0 006.743 0a6.743 6.743 0 100 13.486 6.707 6.707 0 004.27-1.525l3.847 3.843a.666.666 0 00.944-.94zm-9.061-2.72a5.408 5.408 0 01-5.404-5.401 5.41 5.41 0 015.404-5.404 5.413 5.413 0 015.404 5.404 5.41 5.41 0 01-5.404 5.4z" fill="#1B1A17"/></svg><svg fill="none" viewBox="0 0 18 18" id="instagram" xmlns="http://www.w3.org/2000/svg"><path d="M5.21 0C2.337 0 0 2.344 0 5.224v7.553C0 15.657 2.337 18 5.21 18h7.58c2.873 0 5.21-2.342 5.21-5.223V5.224C18 2.344 15.663 0 12.79 0H5.21zm0 1.547h7.58a3.648 3.648 0 013.668 3.677v7.553a3.646 3.646 0 01-3.668 3.676H5.21a3.645 3.645 0 01-3.666-3.676V5.224A3.646 3.646 0 015.21 1.547zm8.62 1.548a1.08 1.08 0 00-1.079 1.082 1.08 1.08 0 102.16 0 1.08 1.08 0 00-1.08-1.082zM9 4.365C6.456 4.366 4.377 6.45 4.377 9S6.456 13.634 9 13.634 13.624 11.55 13.624 9c0-2.55-2.08-4.634-4.624-4.634zm0 1.548c1.71 0 3.08 1.373 3.08 3.087A3.072 3.072 0 019 12.087 3.071 3.071 0 015.92 9 3.071 3.071 0 019 5.913z" fill="#5C5C50"/></svg><svg fill="none" viewBox="0 0 20 18" id="menu" xmlns="http://www.w3.org/2000/svg"><path d="M1 1h18M1 17h18M1 9h18" stroke="#1B1A17" stroke-linecap="round" stroke-linejoin="round"/></svg><svg fill="none" viewBox="0 0 11 2" id="minus" xmlns="http://www.w3.org/2000/svg"><path d="M.625 1.453H10.7" stroke="#1B1A17"/></svg><svg fill="none" viewBox="0 0 7 11" id="pag-left-arrow" xmlns="http://www.w3.org/2000/svg"><path d="M6 .5l-5 5 5 5" stroke="#1B1A17" stroke-width=".5"/></svg><svg fill="none" viewBox="0 0 7 12" id="pag-right-arrow" xmlns="http://www.w3.org/2000/svg"><path d="M1 11l5-5-5-5" stroke="#1B1A17" stroke-width=".5"/></svg><svg fill="none" viewBox="0 0 11 10" id="plus" xmlns="http://www.w3.org/2000/svg"><path d="M5.662 0v10M.625 5H10.7" stroke="#1B1A17"/></svg><svg fill="none" viewBox="0 0 12 7" id="sorting" xmlns="http://www.w3.org/2000/svg"><path d="M1 1l5 5 5-5" stroke="#1B1A17" stroke-width=".5"/></svg><svg fill="none" viewBox="0 0 12 12" id="toddler" xmlns="http://www.w3.org/2000/svg"><circle cx="6" cy="6" r="5" fill="#fff" stroke="#1B1A17"/></svg><svg fill="none" viewBox="0 0 17 14" id="twitter" xmlns="http://www.w3.org/2000/svg"><path d="M17 1.657a6.902 6.902 0 01-2.003.557A3.538 3.538 0 0016.53.258c-.674.406-1.42.7-2.214.858A3.461 3.461 0 0011.77 0C9.844 0 8.283 1.582 8.283 3.534c0 .277.03.547.09.806C5.474 4.192 2.905 2.785 1.185.647a3.552 3.552 0 00-.473 1.777c0 1.226.616 2.307 1.552 2.942a3.434 3.434 0 01-1.58-.443v.045c0 1.713 1.202 3.14 2.797 3.466a3.444 3.444 0 01-1.575.06c.444 1.404 1.732 2.426 3.258 2.455A6.942 6.942 0 010 12.412 9.78 9.78 0 005.347 14c6.414 0 9.922-5.385 9.922-10.056 0-.153-.004-.305-.01-.457A7.155 7.155 0 0017 1.657" fill="#5C5C50"/></svg></svg>